<svg width="19" height="19" viewBox="0 0 19 19" fill="none" xmlns="http://www.w3.org/2000/svg">
<path d="M17.9847 5.324C17.9746 4.56662 17.8328 3.81678 17.5657 3.108C17.334 2.51015 16.9802 1.9672 16.5268 1.51383C16.0735 1.06046 15.5305 0.706651 14.9327 0.475C14.233 0.212357 13.4938 0.0703413 12.7467 0.0550001C11.7847 0.0120001 11.4797 0 9.03767 0C6.59567 0 6.28267 6.70552e-08 5.32767 0.0550001C4.58083 0.0704541 3.84202 0.212468 3.14267 0.475C2.54473 0.706489 2.00169 1.06024 1.5483 1.51363C1.09491 1.96702 0.741157 2.51006 0.509668 3.108C0.246499 3.80713 0.104791 4.54611 0.090668 5.293C0.047668 6.256 0.034668 6.561 0.034668 9.003C0.034668 11.445 0.034668 11.757 0.090668 12.713C0.105668 13.461 0.246668 14.199 0.509668 14.9C0.741546 15.4978 1.09556 16.0406 1.5491 16.4938C2.00264 16.947 2.54573 17.3006 3.14367 17.532C3.8411 17.8052 4.58004 17.9574 5.32867 17.982C6.29167 18.025 6.59667 18.038 9.03867 18.038C11.4807 18.038 11.7937 18.038 12.7487 17.982C13.4958 17.9673 14.235 17.8256 14.9347 17.563C15.5324 17.3311 16.0752 16.9772 16.5285 16.5238C16.9818 16.0705 17.3358 15.5277 17.5677 14.93C17.8307 14.23 17.9717 13.492 17.9867 12.743C18.0297 11.781 18.0427 11.476 18.0427 9.033C18.0407 6.591 18.0407 6.281 17.9847 5.324ZM9.03167 13.621C6.47767 13.621 4.40867 11.552 4.40867 8.998C4.40867 6.444 6.47767 4.375 9.03167 4.375C10.2578 4.375 11.4336 4.86207 12.3006 5.72905C13.1676 6.59603 13.6547 7.7719 13.6547 8.998C13.6547 10.2241 13.1676 11.4 12.3006 12.267C11.4336 13.1339 10.2578 13.621 9.03167 13.621ZM13.8387 5.282C13.6971 5.28213 13.5568 5.25434 13.426 5.20021C13.2951 5.14608 13.1762 5.06668 13.0761 4.96655C12.976 4.86643 12.8966 4.74754 12.8425 4.61669C12.7883 4.48584 12.7605 4.3456 12.7607 4.204C12.7607 4.0625 12.7885 3.92239 12.8427 3.79166C12.8968 3.66093 12.9762 3.54215 13.0763 3.44209C13.1763 3.34204 13.2951 3.26267 13.4258 3.20852C13.5566 3.15437 13.6967 3.1265 13.8382 3.1265C13.9797 3.1265 14.1198 3.15437 14.2505 3.20852C14.3812 3.26267 14.5 3.34204 14.6001 3.44209C14.7001 3.54215 14.7795 3.66093 14.8336 3.79166C14.8878 3.92239 14.9157 4.0625 14.9157 4.204C14.9157 4.8 14.4337 5.282 13.8387 5.282Z" fill="white"/>
<path d="M9.03169 12.001C10.6902 12.001 12.0347 10.6565 12.0347 8.998C12.0347 7.33948 10.6902 5.995 9.03169 5.995C7.37318 5.995 6.02869 7.33948 6.02869 8.998C6.02869 10.6565 7.37318 12.001 9.03169 12.001Z" fill="white"/>
</svg>
